<?xml version="1.0" encoding="UTF-8"?>
<svg xmlns="http://www.w3.org/2000/svg" xmlns:xlink="http://www.w3.org/1999/xlink" version="1.1" viewBox="0 0 32 32">
  <defs>
    <style>
      .cls-1 {
        fill: none;
      }

      .cls-2 {
        fill: #fff;
      }

      .cls-3 {
        fill: transparent;
      }

      .cls-4 {
        clip-path: url(#clippath);
      }
    </style>
    <clipPath id="clippath">
      <rect class="cls-1" x="10" y="9" width="12" height="14"/>
    </clipPath>
  </defs>
  <!-- Generator: Adobe Illustrator 28.7.0, SVG Export Plug-In . SVG Version: 1.2.0 Build 4)  -->
  <g>
    <g id="Capa_1">
      <rect class="cls-3" width="32" height="32" rx="3" ry="3"/>
      <g class="cls-4">
        <path class="cls-2" d="M22,14.7c-.1,0-.2,0-.3,0-1.3,0-2.4-.6-3.1-1.7v5.8c0,2.3-1.9,4.3-4.3,4.3s-4.3-1.9-4.3-4.3,1.9-4.3,4.3-4.3.2,0,.3,0v2.1c0,0-.2,0-.3,0-1.2,0-2.2,1-2.2,2.2s1,2.2,2.2,2.2,2.3-.9,2.3-2.1v-9.8h2c.2,1.8,1.6,3.2,3.5,3.3v2.3Z"/>
      </g>
    </g>
  </g>
</svg>