<?xml version="1.0" encoding="UTF-8"?>
<svg xmlns="http://www.w3.org/2000/svg" version="1.1" viewBox="0 0 32 32">
  <defs>
    <style>
      .cls-1 {
        fill: #fff;
      }

      .cls-2 {
        fill: transparent;
      }
    </style>
  </defs>
  <!-- Generator: Adobe Illustrator 28.7.0, SVG Export Plug-In . SVG Version: 1.2.0 Build 4)  -->
  <g>
    <g id="Capa_1">
      <rect class="cls-2" width="32" height="32" rx="3" ry="3"/>
      <path class="cls-1" d="M16,8c-2.2,0-2.4,0-3.3,0-.9,0-1.4.2-1.9.4-.5.2-1,.5-1.4.9-.4.4-.7.9-.9,1.4-.2.5-.3,1.1-.4,1.9,0,.9,0,1.1,0,3.3s0,2.4,0,3.3c0,.9.2,1.4.4,1.9.2.5.5,1,.9,1.4.4.4.9.7,1.4.9.5.2,1.1.3,1.9.4.9,0,1.1,0,3.3,0s2.4,0,3.3,0c.9,0,1.4-.2,1.9-.4.5-.2,1-.5,1.4-.9.4-.4.7-.9.9-1.4.2-.5.3-1.1.4-1.9,0-.9,0-1.1,0-3.3s0-2.4,0-3.3c0-.9-.2-1.4-.4-1.9-.2-.5-.5-1-.9-1.4-.4-.4-.9-.7-1.4-.9-.5-.2-1.1-.3-1.9-.4-.9,0-1.1,0-3.3,0h0ZM15.3,9.4c.2,0,.5,0,.7,0,2.1,0,2.4,0,3.2,0,.8,0,1.2.2,1.5.3.4.1.6.3.9.6.3.3.5.5.6.9.1.3.2.7.3,1.5,0,.8,0,1.1,0,3.2s0,2.4,0,3.2c0,.8-.2,1.2-.3,1.5-.1.4-.3.6-.6.9-.3.3-.5.5-.9.6-.3.1-.7.2-1.5.3-.8,0-1.1,0-3.2,0s-2.4,0-3.2,0c-.8,0-1.2-.2-1.5-.3-.4-.1-.6-.3-.9-.6-.3-.3-.5-.5-.6-.9-.1-.3-.2-.7-.3-1.5,0-.8,0-1.1,0-3.2s0-2.4,0-3.2c0-.8.2-1.2.3-1.5.1-.4.3-.6.6-.9.3-.3.5-.5.9-.6.3-.1.7-.2,1.5-.3.7,0,1,0,2.5,0h0ZM20.3,10.8c-.5,0-1,.4-1,1s.4,1,1,1,1-.4,1-1-.4-1-1-1h0ZM16,11.9c-2.3,0-4.1,1.8-4.1,4.1s1.8,4.1,4.1,4.1,4.1-1.8,4.1-4.1-1.8-4.1-4.1-4.1h0ZM16,13.3c1.5,0,2.7,1.2,2.7,2.7s-1.2,2.7-2.7,2.7-2.7-1.2-2.7-2.7,1.2-2.7,2.7-2.7h0Z"/>
    </g>
  </g>
</svg>