<svg width="66" height="42" viewBox="0 0 66 42" fill="none" xmlns="http://www.w3.org/2000/svg">
<rect x="59.28" y="32.88" width="3" height="9" fill="#FAB800"/>
<rect x="56.28" y="35.88" width="9" height="3" fill="#FAB800"/>
<path d="M6.99 15.18C5.65 15.18 4.45 14.85 3.39 14.19C2.35 13.53 1.52 12.63 0.9 11.49C0.3 10.35 0 9.05 0 7.59C0 6.13 0.3 4.83 0.9 3.69C1.52 2.55 2.35 1.65 3.39 0.99C4.45 0.33 5.65 0 6.99 0C7.97 0 8.85 0.190001 9.63 0.570001C10.43 0.950001 11.08 1.48 11.58 2.16C12.08 2.82 12.36 3.58 12.42 4.44V10.74C12.36 11.6 12.08 12.37 11.58 13.05C11.1 13.71 10.46 14.23 9.66 14.61C8.86 14.99 7.97 15.18 6.99 15.18ZM7.92 11.04C8.9 11.04 9.69 10.72 10.29 10.08C10.89 9.42 11.19 8.59 11.19 7.59C11.19 6.91 11.05 6.31 10.77 5.79C10.51 5.27 10.13 4.87 9.63 4.59C9.15 4.29 8.59 4.14 7.95 4.14C7.31 4.14 6.74 4.29 6.24 4.59C5.76 4.87 5.37 5.27 5.07 5.79C4.79 6.31 4.65 6.91 4.65 7.59C4.65 8.25 4.79 8.84 5.07 9.36C5.35 9.88 5.74 10.29 6.24 10.59C6.74 10.89 7.3 11.04 7.92 11.04ZM11.01 14.88V10.95L11.7 7.41L11.01 3.87V0.3H15.51V14.88H11.01Z" fill="#FAB800"/>
<path d="M50.2433 33.24C49.3833 33.24 48.5333 33.13 47.6933 32.91C46.8733 32.69 46.1033 32.38 45.3833 31.98C44.6833 31.56 44.0833 31.08 43.5833 30.54L46.1933 27.9C46.6733 28.42 47.2433 28.83 47.9033 29.13C48.5633 29.41 49.2833 29.55 50.0633 29.55C50.6033 29.55 51.0133 29.47 51.2933 29.31C51.5933 29.15 51.7433 28.93 51.7433 28.65C51.7433 28.29 51.5633 28.02 51.2033 27.84C50.8633 27.64 50.4233 27.47 49.8833 27.33C49.3433 27.17 48.7733 27 48.1733 26.82C47.5733 26.64 47.0033 26.39 46.4633 26.07C45.9233 25.75 45.4833 25.31 45.1433 24.75C44.8033 24.17 44.6333 23.44 44.6333 22.56C44.6333 21.62 44.8733 20.81 45.3533 20.13C45.8333 19.43 46.5133 18.88 47.3933 18.48C48.2733 18.08 49.3033 17.88 50.4833 17.88C51.7233 17.88 52.8633 18.1 53.9033 18.54C54.9633 18.96 55.8233 19.59 56.4833 20.43L53.8733 23.07C53.4133 22.53 52.8933 22.15 52.3133 21.93C51.7533 21.71 51.2033 21.6 50.6632 21.6C50.1433 21.6 49.7533 21.68 49.4933 21.84C49.2333 21.98 49.1033 22.19 49.1033 22.47C49.1033 22.77 49.2733 23.01 49.6133 23.19C49.9533 23.37 50.3933 23.53 50.9333 23.67C51.4733 23.81 52.0433 23.98 52.6433 24.18C53.2433 24.38 53.8133 24.65 54.3533 24.99C54.8933 25.33 55.3333 25.79 55.6733 26.37C56.0133 26.93 56.1833 27.67 56.1833 28.59C56.1833 30.01 55.6433 31.14 54.5633 31.98C53.5033 32.82 52.0633 33.24 50.2433 33.24Z" fill="#FAB800"/>
<path d="M33.1814 33.18C31.8414 33.18 30.6414 32.85 29.5814 32.19C28.5414 31.53 27.7114 30.63 27.0914 29.49C26.4914 28.35 26.1914 27.05 26.1914 25.59C26.1914 24.13 26.4914 22.83 27.0914 21.69C27.7114 20.55 28.5414 19.65 29.5814 18.99C30.6414 18.33 31.8414 18 33.1814 18C34.1614 18 35.0414 18.19 35.8214 18.57C36.6214 18.95 37.2714 19.48 37.7714 20.16C38.2714 20.82 38.5514 21.58 38.6114 22.44V28.74C38.5514 29.6 38.2714 30.37 37.7714 31.05C37.2914 31.71 36.6514 32.23 35.8514 32.61C35.0514 32.99 34.1614 33.18 33.1814 33.18ZM34.1114 29.04C35.0914 29.04 35.8814 28.72 36.4814 28.08C37.0814 27.42 37.3814 26.59 37.3814 25.59C37.3814 24.91 37.2414 24.31 36.9614 23.79C36.7014 23.27 36.3214 22.87 35.8214 22.59C35.3414 22.29 34.7814 22.14 34.1414 22.14C33.5014 22.14 32.9314 22.29 32.4314 22.59C31.9514 22.87 31.5614 23.27 31.2614 23.79C30.9814 24.31 30.8414 24.91 30.8414 25.59C30.8414 26.25 30.9814 26.84 31.2614 27.36C31.5414 27.88 31.9314 28.29 32.4314 28.59C32.9314 28.89 33.4914 29.04 34.1114 29.04ZM37.2014 32.88V28.95L37.8914 25.41L37.2014 21.87V18.3H41.7014V32.88H37.2014ZM31.9514 16.65L30.4514 14.46L35.2214 9.98999L37.7414 13.53L31.9514 16.65Z" fill="#FAB800"/>
<path d="M0.900024 32.88V18.3H5.49003V32.88H0.900024ZM10.23 32.88V24.36C10.23 23.62 10 23.05 9.54002 22.65C9.10003 22.23 8.55002 22.02 7.89002 22.02C7.43002 22.02 7.02002 22.12 6.66002 22.32C6.30002 22.5 6.01002 22.76 5.79002 23.1C5.59002 23.44 5.49003 23.86 5.49003 24.36L3.72002 23.58C3.72002 22.42 3.97002 21.43 4.47002 20.61C4.97002 19.77 5.65003 19.13 6.51003 18.69C7.37002 18.23 8.34003 18 9.42003 18C10.44 18 11.35 18.23 12.15 18.69C12.97 19.15 13.62 19.79 14.1 20.61C14.58 21.43 14.82 22.41 14.82 23.55V32.88H10.23ZM19.56 32.88V24.36C19.56 23.62 19.33 23.05 18.87 22.65C18.43 22.23 17.88 22.02 17.22 22.02C16.76 22.02 16.35 22.12 15.99 22.32C15.63 22.5 15.34 22.76 15.12 23.1C14.92 23.44 14.82 23.86 14.82 24.36L12.18 24C12.22 22.76 12.51 21.7 13.05 20.82C13.61 19.92 14.34 19.23 15.24 18.75C16.16 18.25 17.19 18 18.33 18C19.45 18 20.44 18.24 21.3 18.72C22.18 19.18 22.87 19.85 23.37 20.73C23.89 21.59 24.15 22.63 24.15 23.85V32.88H19.56Z" fill="#FAB800"/>
</svg>
