<svg width="86" height="59" viewBox="0 0 86 59" fill="none" xmlns="http://www.w3.org/2000/svg">
<rect width="86" height="59" fill="#EEEEEE"/>
<g clip-path="url(#clip0_16_27)">
<path d="M53.8562 51.0097C53.8838 51.316 53.9445 51.472 54.0217 51.5889C54.1487 51.7894 54.397 52.0512 54.844 52.1403H55.6001C55.6001 52.1403 56.5273 51.8563 56.5273 51.0097H55.843C55.843 51.0097 55.6664 51.7115 55.3242 51.7115H54.9875C54.9875 51.7115 54.4356 51.6335 54.7226 50.436C55.0096 49.2386 56.0416 49.5059 55.8595 50.3191H56.7425C56.7425 50.3191 56.6487 49.1996 55.8043 49.1996H55.418C55.1973 49.1996 54.9765 49.2441 54.7778 49.3388C54.4136 49.5115 53.9169 49.8679 53.8506 50.4694" fill="#FAB800"/>
<path d="M45.622 49.7788H46.9024L45.2357 51.4608V52.1403H47.7247V51.5332H46.2126L48.0559 49.673V49.194H45.622V49.7788Z" fill="#FAB800"/>
<path d="M44.888 49.194C44.6893 49.8512 44.4961 50.5028 44.2974 51.1601C44.2257 51.3383 44.2974 51.4998 44.4023 51.5276C44.4685 51.5499 44.5513 51.5109 44.612 51.4441H45.0094C45.0094 51.4441 44.6341 52.1403 44.4078 52.1403L43.9994 52.1236C43.8007 52.1236 43.6352 52.0233 43.5855 51.8785C43.5745 51.8451 43.5634 51.7894 43.58 51.7114C43.5303 51.7727 43.4475 51.8563 43.3316 51.9231C43.1274 52.04 42.9288 52.0512 42.8349 52.0512C42.7466 52.0512 42.2499 52.0512 41.985 51.6836C41.8305 51.4664 41.8305 51.2269 41.8305 51.1155C41.8305 50.1353 42.2058 49.2051 43.2378 49.116C43.2378 49.116 43.8118 49.1272 43.9553 49.5894L44.016 49.194H44.888Z" fill="#FAB800"/>
<path d="M51.3616 50.7423H53.3098C53.3098 50.7423 53.3429 50.7312 53.3484 50.7089C53.3705 50.4917 53.4588 49.2162 52.4047 49.194H51.8583C51.8583 49.194 50.7932 49.194 50.5173 50.3134C50.4565 50.5195 50.4455 50.6031 50.4455 50.8091C50.4455 51.1712 50.44 51.199 50.4455 51.2658C50.4455 51.3884 50.5669 51.7114 50.8539 51.962C50.9974 52.0901 51.2016 52.1848 51.4996 52.2015H52.2502C52.2502 52.2015 53.1994 52.0734 53.1994 51.2213H52.3992C52.3992 51.2213 52.3661 51.2324 52.3606 51.2491C52.3385 51.3494 52.2391 51.6891 51.9411 51.6891H51.6376C51.6376 51.6891 51.174 51.6947 51.3616 50.7423Z" fill="#FAB800"/>
<path d="M51.4555 50.3135H52.5703C52.5703 50.3135 52.6531 49.6117 52.1674 49.6117C51.6817 49.6117 51.5438 49.8846 51.45 50.3135H51.4555Z" fill="#EEEEEE"/>
<path d="M60.0539 49.1884C59.8552 49.8456 59.6621 50.4972 59.4634 51.1544C59.3917 51.3327 59.4634 51.4942 59.5683 51.522C59.6345 51.5443 59.7173 51.5053 59.778 51.4385H60.1753C60.1753 51.4385 59.8001 52.1347 59.5738 52.1347L59.1654 52.118C58.9667 52.118 58.8011 52.0177 58.7515 51.8729C58.7404 51.8395 58.7294 51.7838 58.7459 51.7058C58.6963 51.7671 58.6135 51.8506 58.4976 51.9175C58.2934 52.0344 58.0947 52.0456 58.0009 52.0456C57.9126 52.0456 57.4159 52.0456 57.151 51.678C56.9965 51.4608 56.9965 51.2213 56.9965 51.1099C56.9965 50.1296 57.3717 49.1995 58.4038 49.1104C58.4038 49.1104 58.9777 49.1216 59.1212 49.5838L59.1819 49.1884H60.0539Z" fill="#FAB800"/>
<path d="M57.7911 50.4638C57.6918 51.0598 57.7415 51.5833 58.0395 51.6669C58.3375 51.7504 58.7128 51.355 58.8783 50.7757C59.0439 50.1965 58.928 49.6563 58.63 49.5727C58.332 49.4892 57.9015 49.8122 57.7911 50.4638Z" fill="#EEEEEE"/>
<path d="M48.8229 48.4866L48.7788 49.194H48.3152V49.7286H48.696L48.5249 51.3772C48.5249 51.3772 48.4532 52.1403 49.0326 52.1403H49.8108V51.6112C49.8108 51.6112 49.2313 51.6891 49.292 51.2102L49.4631 49.7342H50.2523V49.1995H49.5238L49.579 48.4922H48.8229V48.4866Z" fill="#FAB800"/>
<path d="M42.5811 50.4638C42.4818 51.0598 42.5314 51.5833 42.8295 51.6669C43.1275 51.7504 43.5028 51.355 43.6683 50.7757C43.8339 50.1965 43.718 49.6563 43.42 49.5727C43.122 49.4892 42.6915 49.8122 42.5811 50.4638Z" fill="#EEEEEE"/>
<path d="M18 13.4151V53.8724C18 53.8724 18.1545 56.5347 21.372 55.9053C21.372 55.9053 22.2219 55.8608 23.9659 53.516C25.7099 51.1712 47.9289 20.2044 47.9289 20.2044L35.6383 18.7507C35.6383 18.7507 30.434 18.3553 30.4616 15.849L30.4892 13.2647L56.0141 13.4485C56.0141 13.4485 58.4976 13.6602 57.6863 16.8515L42.9122 47.4117H58.917C58.917 47.4117 68.3377 46.5039 69.0055 38.3278V12.7523C69.0055 12.7523 68.2494 4.34784 58.3651 3H28.3038C28.3038 3 19.5894 3.11139 18 13.4151Z" fill="#FAB800"/>
</g>
<defs>
<clipPath id="clip0_16_27">
<rect width="51" height="53" fill="white" transform="translate(18 3)"/>
</clipPath>
</defs>
</svg>
