<?xml version="1.0" encoding="UTF-8"?>
<svg xmlns="http://www.w3.org/2000/svg" xmlns:xlink="http://www.w3.org/1999/xlink" version="1.1" viewBox="0 0 32 32">
  <defs>
    <style>
      .cls-1 {
        fill: none;
      }

      .cls-2 {
        fill: #fff;
      }

      .cls-3 {
        fill: transparent;
      }

      .cls-4 {
        clip-path: url(#clippath);
      }
    </style>
    <clipPath id="clippath">
      <rect class="cls-1" x="9" y="9" width="14" height="14"/>
    </clipPath>
  </defs>
  <!-- Generator: Adobe Illustrator 28.7.0, SVG Export Plug-In . SVG Version: 1.2.0 Build 4)  -->
  <g>
    <g id="Capa_1">
      <rect class="cls-3" width="32" height="32" rx="3" ry="3"/>
      <g class="cls-4">
        <path class="cls-2" d="M9,23l1-3.8c-.6-1-.9-2.2-.9-3.3,0-3.8,3.1-6.9,6.9-6.9s6.9,3.1,6.9,6.9-3.1,6.9-6.9,6.9-2.3-.3-3.3-.8l-3.8,1ZM13,20.6h.2c.9.7,1.9.9,2.9.9,3.1,0,5.6-2.5,5.6-5.6s-2.5-5.6-5.6-5.6-5.6,2.5-5.6,5.6.3,2,.8,2.9v.2c.1,0-.4,2.1-.4,2.1l2.1-.6ZM18.6,16.9c-.3-.2-.7-.4-1-.2-.3,0-.4.5-.6.7,0,0-.2.1-.3,0-1-.4-1.7-1-2.3-1.9,0-.1,0-.2,0-.4.2-.2.4-.4.4-.7,0-.3,0-.6-.2-.8-.1-.3-.3-.7-.6-.9-.3-.1-.6,0-.9.1-.4.3-.6.9-.6,1.4s0,.3,0,.4c0,.3.2.7.4,1,.1.2.3.5.4.7.5.7,1.2,1.3,1.9,1.8.4.2.8.4,1.2.6.5.1.9.3,1.4.2.5,0,1.1-.4,1.2-.9,0-.1,0-.3,0-.5,0-.3-.5-.5-.8-.7Z"/>
      </g>
    </g>
  </g>
</svg>