<?xml version="1.0" encoding="UTF-8"?>
<svg xmlns="http://www.w3.org/2000/svg" version="1.1" viewBox="0 0 32 32">
  <defs>
    <style>
      .cls-1 {
        fill: #fff;
      }

      .cls-2 {
        fill: transparent;
      }
    </style>
  </defs>
  <!-- Generator: Adobe Illustrator 28.7.0, SVG Export Plug-In . SVG Version: 1.2.0 Build 4)  -->
  <g>
    <g id="Capa_1">
      <rect class="cls-2" width="32" height="32" rx="3" ry="3"/>
      <path class="cls-1" d="M16.1,10s0,0,0,0h0c.8,0,5,0,6.1.3.7.2,1.2.7,1.4,1.4.1.4.2.9.2,1.4h0c0,.2,0,.3,0,.4h0c0,1,0,1.9,0,2.1h0c0,0,0,0,0,0,0,.2,0,1.1,0,2.1h0c0,.1,0,.2,0,.2,0,.6-.1,1.1-.2,1.6-.2.7-.7,1.2-1.4,1.4-1.2.3-5.6.3-6.2.3h0s0,0,0,0h0c-.3,0-1.6,0-2.9,0h-.2s0,0,0,0h-.2s-.2,0-.2,0c-1.1,0-2.2-.1-2.7-.3-.7-.2-1.2-.7-1.4-1.4-.1-.4-.2-1-.2-1.6h0c0-.1,0-.2,0-.2,0-.9,0-1.8,0-2h0s0,0,0,0h0s0,0,0,0h0c0-.2,0-1,0-1.8h0c0-.1,0-.1,0-.2h0c0-.2,0-.3,0-.4h0c0-.6.1-1.1.2-1.5.2-.7.7-1.2,1.4-1.4.5-.1,1.5-.2,2.7-.3h.2s.2,0,.2,0c0,0,0,0,0,0h.2c1.3,0,2.5,0,2.9,0h0s0,0,0,0h.1ZM14.4,13.2v4.8l4.2-2.4-4.2-2.4Z"/>
    </g>
  </g>
</svg>