<svg width="153" height="56" viewBox="0 0 153 56" fill="none" xmlns="http://www.w3.org/2000/svg">
<path d="M0.567059 3.62268H30.8174C31.5445 3.62268 32.2419 3.91154 32.7561 4.4257C33.2702 4.93986 33.5591 5.63722 33.5591 6.36436V14.8804H13.7394V19.9502H30.5877C30.9939 19.9502 31.3835 20.1116 31.6707 20.3988C31.958 20.6861 32.1193 21.0757 32.1193 21.4819V30.197H13.7394V43.0937H3.43127C3.0492 43.0917 2.67135 43.0137 2.31971 42.8643C1.96808 42.7149 1.64969 42.497 1.38312 42.2233C1.11654 41.9496 0.907099 41.6255 0.766994 41.2701C0.62689 40.9146 0.558925 40.5348 0.567059 40.1529V3.62268Z" fill="white"/>
<path d="M36.7607 3.62268H47.3139C48.0073 3.6267 48.6712 3.90394 49.1615 4.39425C49.6518 4.88457 49.929 5.54843 49.9331 6.24183V43.0018H39.8547C39.0423 43.0018 38.2631 42.679 37.6886 42.1045C37.1141 41.53 36.7914 40.7509 36.7914 39.9384L36.7607 3.62268Z" fill="white"/>
<path d="M74.6997 18.8167L65.7547 43.0323H52.9653C52.8242 43.0298 52.6858 42.9932 52.5619 42.9255C52.438 42.8578 52.3324 42.7611 52.254 42.6436C52.1757 42.5262 52.1271 42.3915 52.1123 42.2511C52.0974 42.1107 52.1169 41.9688 52.1689 41.8376L68.282 3.34686H79.1262C79.7815 3.34305 80.4231 3.53487 80.9688 3.89777C81.5145 4.26067 81.9396 4.77814 82.1895 5.38397L97.353 41.5925C97.4185 41.7509 97.444 41.9231 97.427 42.0937C97.41 42.2644 97.3512 42.4282 97.2558 42.5706C97.1603 42.713 97.0312 42.8297 96.8798 42.9102C96.7284 42.9908 96.5595 43.0327 96.388 43.0323H83.6446L74.6997 18.8167Z" fill="white"/>
<path d="M151.573 34.6232L137.252 11.6482C137.199 11.5814 137.153 11.5096 137.114 11.4338C136.804 10.9798 136.392 10.6048 135.91 10.3388C135.429 10.0728 134.892 9.92327 134.342 9.9021C129.579 9.9021 128.491 18.5254 128.491 20.3787C128.573 23.7643 129.087 27.1256 130.023 30.3804C132.795 39.2641 138.279 41.4237 142.874 41.4237C145.373 41.4181 147.845 40.8967 150.134 39.8921C150.623 39.7013 151.059 39.3959 151.406 39.0014C151.752 38.6069 151.999 38.1349 152.125 37.6252C152.256 37.1416 152.278 36.6347 152.188 36.1417C152.098 35.6487 151.898 35.1821 151.604 34.7763" fill="#FFC629"/>
<path d="M129.028 0.0383916C120.481 2.13677 105.532 8.44722 100.876 28.0678C100.692 28.8183 99.8191 33.5818 100.248 35.2207C100.444 36.3862 101.075 37.434 102.013 38.1531C102.95 38.8722 104.126 39.2091 105.302 39.0958C106.227 39.0292 107.109 38.6786 107.828 38.0919C108.546 37.5053 109.065 36.7111 109.315 35.8181C109.51 35.1408 109.608 34.4396 109.606 33.735V33.4899C109.606 30.978 110.173 9.42749 129.518 1.32499C129.667 1.26063 129.788 1.14461 129.858 0.998281C129.929 0.85195 129.944 0.685139 129.901 0.528524C129.878 0.437643 129.837 0.352375 129.78 0.277931C129.723 0.203488 129.652 0.141433 129.57 0.0955593C129.488 0.0496853 129.398 0.0209557 129.305 0.0111264C129.212 0.00129707 129.117 0.0105745 129.028 0.0383916Z" fill="#0071CE"/>
<path d="M133.056 0.697015C125.933 2.91793 111.061 10.224 111.061 35.0982C110.94 36.8162 111.09 38.5424 111.505 40.2139C111.738 40.8054 112.091 41.3421 112.542 41.7901C112.994 42.2381 113.533 42.5876 114.126 42.8165C114.719 43.0454 115.353 43.1487 115.988 43.1199C116.623 43.0911 117.246 42.9309 117.816 42.6493C118.629 42.2661 119.312 41.6526 119.781 40.8849C120.249 40.1171 120.482 39.2288 120.45 38.33C120.45 37.0281 119.822 34.7765 119.684 33.5052C119.474 31.7516 119.367 29.9872 119.363 28.221C119.363 20.4095 121.507 8.30938 133.5 1.84576C133.652 1.77864 133.771 1.65383 133.832 1.49876C133.892 1.34368 133.888 1.17101 133.821 1.01866C133.752 0.883188 133.638 0.776551 133.497 0.717669C133.357 0.658788 133.201 0.651471 133.056 0.697015Z" fill="#773DBD"/>
<path d="M134.894 2.58104C133.653 3.11712 116.039 10.0096 121.798 37.3039C122.027 38.6458 122.467 39.9432 123.1 41.1483C123.708 42.1091 124.643 42.8179 125.732 43.1444C126.821 43.4708 127.991 43.3929 129.028 42.9251C129.791 42.5519 130.443 41.9849 130.919 41.2807C131.395 40.5765 131.677 39.7597 131.739 38.9121C131.861 36.6452 129.686 33.7351 128.859 31.2538C127.82 28.099 127.272 24.8031 127.235 21.4818C127.169 18.0717 127.882 14.6914 129.321 11.5989C130.76 8.50649 132.886 5.78354 135.537 3.63789C135.647 3.54376 135.721 3.41554 135.749 3.27385C135.777 3.13216 135.756 2.98524 135.69 2.85674C135.611 2.72493 135.487 2.62517 135.342 2.57481C135.196 2.52444 135.038 2.52665 134.894 2.58104Z" fill="#F5333F"/>
<path d="M109.774 4.63347C109.591 4.54157 106.512 3.10181 93.3397 3.10181C91.3792 3.10181 89.2042 3.10181 86.7382 3.20902C86.611 3.2146 86.4888 3.2607 86.3896 3.34061C86.2904 3.42052 86.2194 3.53005 86.1868 3.65321C86.0643 3.89827 86.3094 4.26587 86.4166 4.32714C89.2808 6.47147 96.3877 12.2765 100.202 19.8123C100.311 20.0446 100.492 20.2357 100.718 20.357C100.944 20.4784 101.204 20.5237 101.458 20.4862C101.683 20.4656 101.897 20.3831 102.079 20.248C102.26 20.1128 102.4 19.9302 102.484 19.7204C104.451 15.4285 107.252 11.5705 110.724 8.37073C110.946 8.15724 111.12 7.89979 111.236 7.61491C111.352 7.33002 111.407 7.02401 111.398 6.71653C111.372 6.24512 111.203 5.79284 110.913 5.42047C110.623 5.0481 110.225 4.77347 109.774 4.63347Z" fill="#00B855"/>
<path d="M1.41113 49.1738H6.56571V50.7392H3.19659V51.8337H6.24164V53.3195H3.19659V55.6186H1.41113V49.1738Z" fill="white"/>
<path d="M7.31152 52.824V49.1553H9.14589V52.7384C9.14589 53.6678 9.61672 54.1081 10.3321 54.1081C11.0475 54.1081 11.555 53.6862 11.555 52.7812V49.1553H13.3894V52.7262C13.3894 54.799 12.1665 55.7223 10.3688 55.7223C8.57112 55.7223 7.39713 54.7929 7.39713 52.7751" fill="white"/>
<path d="M14.3555 49.1736H19.5406V50.6839H16.1226V51.6683H19.2165V53.0808H16.1226V54.1019H19.5834V55.6183H14.3555V49.1736Z" fill="white"/>
<path d="M20.5068 49.1553H23.5641C23.942 49.1265 24.3218 49.1727 24.6818 49.2913C25.0417 49.4099 25.3747 49.5985 25.6614 49.8462C25.8545 50.0444 26.0047 50.2802 26.1026 50.539C26.2004 50.7978 26.2438 51.0741 26.2301 51.3504C26.254 51.7844 26.1387 52.2147 25.9012 52.5787C25.6637 52.9427 25.3162 53.2214 24.9093 53.3743L26.4441 55.6184H24.3896L23.075 53.6678H22.2862V55.6184H20.5068V49.1553ZM23.4785 52.2493C24.09 52.2493 24.4324 51.9558 24.4324 51.4849C24.4324 50.9713 24.0594 50.7145 23.4663 50.7145H22.2923V52.2676L23.4785 52.2493Z" fill="white"/>
<path d="M26.9268 54.3221L30.1614 50.6778H27.0368V49.1736H32.6133V50.4638L29.3848 54.108H32.6133V55.6183H26.9268V54.3221Z" fill="white"/>
<path d="M35.7684 49.1553H37.4927L40.232 55.6428H38.3181L37.8596 54.4811H35.3648L34.9062 55.6428H33.0352L35.7684 49.1553ZM37.3337 53.0931L36.6183 51.2587L35.8907 53.0931H37.3337Z" fill="white"/>
<path d="M45.2405 49.1736H43.4551V55.6183H45.2405V49.1736Z" fill="white"/>
<path d="M46.4141 49.1736H48.0833L50.7309 52.5794V49.1736H52.4981V55.6183H50.945L48.1812 52.0841V55.6183H46.4141V49.1736Z" fill="white"/>
<path d="M53.6416 49.1736H58.7962V50.7389H55.4271V51.8334H58.4721V53.3193H55.4271V55.6183H53.6416V49.1736Z" fill="white"/>
<path d="M59.4014 52.4144C59.4389 51.5193 59.821 50.6734 60.4676 50.0533C61.1143 49.4332 61.9755 49.087 62.8714 49.087C63.7673 49.087 64.6285 49.4332 65.2752 50.0533C65.9218 50.6734 66.3038 51.5193 66.3414 52.4144C66.3038 53.3095 65.9218 54.1555 65.2752 54.7755C64.6285 55.3956 63.7673 55.7418 62.8714 55.7418C61.9755 55.7418 61.1143 55.3956 60.4676 54.7755C59.821 54.1555 59.4389 53.3095 59.4014 52.4144ZM64.507 52.4144C64.5177 52.1912 64.4832 51.9682 64.4055 51.7587C64.3278 51.5492 64.2086 51.3576 64.0549 51.1954C63.9013 51.0332 63.7164 50.9037 63.5114 50.8148C63.3065 50.7258 63.0856 50.6793 62.8622 50.6779C62.6404 50.6785 62.421 50.7239 62.2172 50.8115C62.0135 50.8991 61.8295 51.027 61.6764 51.1875C61.5233 51.348 61.4043 51.5378 61.3265 51.7455C61.2486 51.9532 61.2136 52.1745 61.2235 52.3961C61.2145 52.6201 61.2506 52.8438 61.3296 53.0536C61.4086 53.2635 61.5289 53.4554 61.6834 53.6179C61.8379 53.7804 62.0235 53.9103 62.2292 53.9997C62.4348 54.0892 62.6563 54.1365 62.8806 54.1387C63.1019 54.1365 63.3205 54.0897 63.5232 54.001C63.726 53.9123 63.9088 53.7836 64.0606 53.6226C64.2125 53.4616 64.3303 53.2716 64.407 53.064C64.4837 52.8564 64.5177 52.6355 64.507 52.4144Z" fill="white"/>
<path d="M67.2588 49.1552H70.3161C70.6949 49.1263 71.0757 49.1724 71.4367 49.291C71.7976 49.4096 72.1316 49.5982 72.4195 49.8462C72.6114 50.0452 72.7608 50.2812 72.8586 50.5398C72.9564 50.7984 73.0004 51.0742 72.9881 51.3504C73.0027 51.7788 72.8825 52.201 72.6445 52.5575C72.4065 52.914 72.0626 53.1869 71.6613 53.3376L73.2144 55.6183H71.1354L69.8391 53.6678H69.0442V55.6183H67.2588V49.1552ZM70.2305 52.2492C70.8419 52.2492 71.1905 51.9557 71.1905 51.4849C71.1905 50.9713 70.8114 50.7145 70.2244 50.7145H69.0442V52.2676L70.2305 52.2492Z" fill="white"/>
<path d="M73.875 49.1736H75.7644L77.2992 51.6683L78.8339 49.1736H80.7233V55.6183H78.9501V51.919L77.2992 54.4382H77.2625L75.6238 51.9313V55.6183H73.875V49.1736Z" fill="white"/>
<path d="M84.0925 49.1553H85.8107L88.5562 55.6428H86.6668L86.2021 54.4811H83.7073L83.2487 55.6428H81.3838L84.0925 49.1553ZM85.6518 53.0931L84.9364 51.2587L84.2087 53.0931H85.6518Z" fill="white"/>
<path d="M89.9261 50.7389H88V49.1736H93.6438V50.7389H91.7115V55.6183H89.9261V50.7389Z" fill="white"/>
<path d="M96.2542 49.1736H94.4688V55.6183H96.2542V49.1736Z" fill="white"/>
<path d="M96.9268 49.1736H98.914L100.375 53.252L101.849 49.1736H103.8L101.189 55.6673H99.5316L96.9268 49.1736Z" fill="white"/>
<path d="M105.731 49.1553H107.456L110.195 55.6428H108.281L107.822 54.4811H105.328L104.869 55.6428H102.998L105.731 49.1553ZM107.297 53.0931L106.581 51.2587L105.854 53.0931H107.297Z" fill="white"/>
<path d="M115.595 49.1553H117.319L120.058 55.6428H118.144L117.686 54.4811H115.191L114.732 55.6428H112.861L115.595 49.1553ZM117.16 53.0931L116.444 51.2587L115.717 53.0931H117.16Z" fill="white"/>
<path d="M120.492 54.3221L123.721 50.6778H120.602V49.1736H126.179V50.4638L122.95 54.108H126.179V55.6183H120.492V54.3221Z" fill="white"/>
<path d="M128.68 50.7389H126.76V49.1736H132.397V50.7389H130.465V55.6183H128.68V50.7389Z" fill="white"/>
<path d="M133.18 49.1736H138.365V50.6839H134.947V51.6683H138.041V53.0808H134.947V54.1019H138.408V55.6183H133.18V49.1736Z" fill="white"/>
<path d="M139.069 52.4143C139.062 51.9693 139.145 51.5275 139.314 51.1155C139.482 50.7035 139.732 50.3298 140.048 50.0168C140.365 49.7038 140.741 49.458 141.155 49.2942C141.569 49.1304 142.011 49.0519 142.456 49.0635C142.985 49.0371 143.513 49.1436 143.99 49.3732C144.467 49.6028 144.88 49.9483 145.189 50.3782L143.844 51.4176C143.687 51.1883 143.478 50.9998 143.233 50.8679C142.988 50.736 142.716 50.6645 142.438 50.6594C142.224 50.6679 142.013 50.7193 141.819 50.8106C141.625 50.9019 141.451 51.0312 141.308 51.1908C141.165 51.3505 141.056 51.5373 140.986 51.7401C140.916 51.9429 140.888 52.1576 140.903 52.3715C140.886 52.5866 140.912 52.8029 140.98 53.0076C141.049 53.2122 141.158 53.4008 141.302 53.5619C141.445 53.7231 141.62 53.8535 141.815 53.9453C142.01 54.037 142.222 54.0883 142.438 54.0958C142.726 54.0949 143.01 54.023 143.263 53.8865C143.517 53.75 143.733 53.5531 143.893 53.3131L145.238 54.267C144.829 54.8559 144.244 55.2999 143.567 55.5351C142.89 55.7703 142.156 55.7846 141.47 55.5759C140.784 55.3672 140.182 54.9463 139.75 54.3738C139.319 53.8013 139.08 53.1066 139.069 52.3898" fill="white"/>
<path d="M148.18 49.1553H149.904L152.643 55.6428H150.729L150.271 54.4811H147.776L147.317 55.6428H145.446L148.18 49.1553ZM149.745 53.0931L149.029 51.2587L148.302 53.0931H149.745Z" fill="white"/>
</svg>
