<svg width="496" height="79" viewBox="0 0 496 79" fill="none" xmlns="http://www.w3.org/2000/svg">
<g clip-path="url(#clip0_25_27)">
<path d="M159.221 11.2589V24.6439H170.074V35.3416H159.221V52.2471C159.221 57.8936 160.622 60.4617 165.197 60.4617C167.095 60.4617 168.584 60.2746 169.684 60.0705L169.772 71.0574C167.769 71.8228 164.204 72.299 159.913 72.299C155.037 72.299 150.94 70.6662 148.546 68.2852C145.762 65.513 144.361 61.023 144.361 54.424V35.3246H137.889V24.6268H144.361V14.4904L159.204 11.2419L159.221 11.2589Z" fill="#797979"/>
<path d="M187.612 24.6439L194.208 46.3285C195.396 50.2572 196.283 53.9649 196.992 57.6895H197.294C198.092 53.8798 198.889 50.3423 199.989 46.3285L206.266 24.6439H222.19L204.085 71.3636H188.924L171.191 24.6439H187.612V24.6439Z" fill="#797979"/>
<path d="M264.022 71.3465L263.117 66.6695H262.816C259.624 70.3941 254.659 72.401 248.878 72.401C239.018 72.401 233.149 65.53 233.149 58.0807C233.149 45.9373 244.498 40.1037 261.734 40.2057V39.5425C261.734 37.0594 260.333 33.5218 252.868 33.5218C247.885 33.5218 242.618 35.1545 239.444 37.0594L236.642 27.6882C240.047 25.8684 246.714 23.5894 255.581 23.5894C271.806 23.5894 276.984 32.7564 276.984 43.7433V59.9855C276.984 64.4755 277.197 68.7614 277.693 71.3465H264.039H264.022ZM262.231 49.2878C254.269 49.1857 248.098 51.0055 248.098 56.635C248.098 60.3597 250.687 62.1625 254.073 62.1625C257.868 62.1625 260.936 59.7814 261.947 56.8221C262.142 56.0568 262.248 55.2064 262.248 54.339V49.2878H262.231Z" fill="#797979"/>
<path d="M282.038 63.0469L297.377 44.6107C300.161 41.4473 302.377 39.1513 305.144 36.294V36.107H283.74V24.6439H323.568V33.3347L308.938 51.0056C306.261 54.0669 303.76 57.0262 300.976 59.5944V59.7815H324.384V71.3466H282.056V63.0299L282.038 63.0469Z" fill="#797979"/>
<path d="M346.585 11.259V24.6439H357.455V35.3416H346.585V52.2471C346.585 57.8936 347.986 60.4618 352.578 60.4618C354.458 60.4618 355.965 60.2747 357.065 60.0706L357.171 71.0575C355.167 71.8228 351.603 72.299 347.312 72.299C342.418 72.299 338.339 70.6663 335.945 68.2852C333.161 65.513 331.76 61.023 331.76 54.4241V35.3246H325.288V24.6269H331.76V14.4904L346.585 11.242V11.259Z" fill="#797979"/>
<path d="M374.372 52.6382C374.868 58.6589 381.039 61.5162 388.132 61.5162C393.31 61.5162 397.477 60.8529 401.574 59.6113L403.56 69.4587C398.577 71.3805 392.495 72.333 385.916 72.333C369.389 72.333 359.92 63.1489 359.92 48.5394C359.92 36.7022 367.598 23.6064 384.515 23.6064C400.244 23.6064 406.237 35.3586 406.237 46.9237C406.237 49.3898 405.918 51.6008 405.741 52.6552H374.372V52.6382ZM392.193 42.7058C392.193 39.1683 390.597 33.2497 383.646 33.2497C377.244 33.2497 374.673 38.7941 374.265 42.7058H392.193Z" fill="#797979"/>
<path d="M448.884 70.207C446.189 71.3465 441.118 72.316 435.337 72.316C419.59 72.316 409.553 63.1319 409.553 48.4204C409.553 34.7633 419.306 23.5894 437.447 23.5894C441.419 23.5894 445.799 24.2527 448.991 25.4092L446.597 36.209C444.824 35.4436 442.128 34.7803 438.138 34.7803C430.177 34.7803 424.981 40.2228 425.087 47.8761C425.087 56.482 431.063 60.9719 438.44 60.9719C442.022 60.9719 444.824 60.3937 447.111 59.5433L448.884 70.2411V70.207Z" fill="#797979"/>
<path d="M482.346 71.3465L481.442 66.6695H481.14C477.966 70.3941 472.965 72.401 467.202 72.401C457.343 72.401 451.473 65.53 451.473 58.0807C451.473 45.9373 462.822 40.1037 480.058 40.2057V39.5425C480.058 37.0594 478.658 33.5218 471.192 33.5218C466.209 33.5218 460.925 35.1545 457.751 37.0594L454.967 27.6882C458.354 25.8684 465.021 23.5894 473.887 23.5894C490.131 23.5894 495.309 32.7564 495.309 43.7433V59.9855C495.309 64.4755 495.504 68.7614 496 71.3465H482.364H482.346ZM480.555 49.2878C472.575 49.1857 466.404 51.0055 466.404 56.635C466.404 60.3597 469.011 62.1625 472.38 62.1625C476.175 62.1625 479.26 59.7814 480.253 56.8221C480.449 56.0568 480.555 55.2064 480.555 54.339V49.2878Z" fill="#797979"/>
<path d="M124.377 63.0637L97.1394 21.0551C97.1394 21.0551 96.8734 20.6979 96.8734 20.6639C95.2066 18.47 92.99 17.8577 91.6068 17.8577C82.5455 17.8577 80.4707 33.5897 80.4707 36.9742C80.4707 46.2433 83.2725 55.1892 83.2725 55.1892C88.5391 71.3804 98.9659 75.3261 107.708 75.3261H107.761C114.056 75.3261 119.553 73.3022 121.575 72.4008C121.841 72.3158 124.661 71.2273 125.352 68.268C126.097 65.0026 124.359 63.0807 124.359 63.0807L124.377 63.0637Z" fill="#FFC629"/>
<path d="M81.5347 0.0336651C81.5347 0.0336651 81.4637 0.0676802 81.4283 0.0676802C65.2561 3.82634 36.8307 15.3234 27.9998 51.1073C27.6629 52.4849 25.996 61.1757 26.794 64.1691C27.3437 66.227 29.1879 71.5163 36.4228 71.2272C41.7958 70.9721 43.6755 66.0399 43.906 65.2405C44.5976 63.1996 44.5976 61.4138 44.5976 61.4138V60.9887C44.5976 56.3966 45.6615 17.0922 82.2972 2.22764C82.6164 2.10858 83.3257 1.51332 83.0065 0.781997C82.6164 -0.13641 81.6943 -0.000349969 81.5169 0.0506726L81.5347 0.0336651Z" fill="#0071CE"/>
<path d="M89.1597 1.19006C75.6297 5.25486 47.3461 18.5718 47.3461 63.9309C47.3461 63.9309 46.9915 70.4958 48.1973 73.234C48.8711 74.6966 52.5595 80.9214 60.2023 77.69C64.9901 75.6831 65.2029 70.8019 65.2029 69.8835C65.2029 67.5024 64.0148 63.3866 63.7488 61.0566C63.4474 58.6755 63.1459 55.342 63.1459 51.4303C63.1459 37.195 67.2067 15.1532 90.0286 3.33301C90.0641 3.299 90.0995 3.299 90.135 3.299C90.6315 3.02687 91.0571 2.51665 90.7379 1.76832C90.4542 1.10502 89.6739 1.00298 89.1774 1.17305L89.1597 1.19006Z" fill="#773DBD"/>
<path d="M92.6708 4.64269C90.3124 5.62913 56.8331 18.1977 67.7564 67.9617C67.9338 68.8121 68.8736 72.8259 70.3454 74.9518C71.1611 76.0403 74.9027 80.8535 81.4992 78.2513C85.6487 76.6016 86.5531 72.1966 86.6417 70.9551C86.8545 66.8222 82.7405 61.5329 81.1801 56.9239C79.6373 52.3658 78.0768 46.022 78.0768 39.0149C78.0768 28.5213 81.5879 16.4799 93.8589 6.58155C94.0894 6.41147 94.4795 5.81621 94.1604 5.16992C93.788 4.54064 92.99 4.48962 92.6531 4.6597L92.6708 4.64269Z" fill="#F5333F"/>
<path d="M44.8988 8.29945C44.5796 8.14638 38.6923 5.62926 13.6539 5.62926C9.94773 5.62926 5.79829 5.66328 1.11687 5.79934C0.957277 5.79934 0.283436 5.90139 0.0529116 6.59869C-0.177613 7.0579 0.283436 7.7382 0.496228 7.84024C5.94015 11.752 19.4524 22.3477 26.6873 36.0728C26.8824 36.4469 27.6094 37.5014 29.0813 37.3143C30.358 37.1612 30.8368 36.3279 31.0496 35.9027C33.2662 31.0725 37.8944 23.198 46.7075 15.2215C46.9735 14.9834 48.0552 13.9119 48.002 12.1942C48.002 10.9186 47.275 9.16683 44.8988 8.28244V8.29945Z" fill="#35B263"/>
</g>
<defs>
<clipPath id="clip0_25_27">
<rect width="496" height="79" fill="white"/>
</clipPath>
</defs>
</svg>
